<svg width="30" height="30" viewBox="0 0 30 30" fill="none" xmlns="http://www.w3.org/2000/svg">
<g clip-path="url(#clip0_2013_254)">
<path fill-rule="evenodd" clip-rule="evenodd" d="M17.0877 0.320036C17.7194 -0.0704065 18.5083 -0.105901 19.1726 0.22623C24.1723 2.72606 26.6016 7.09161 27.7746 11.197C28.9288 15.2363 28.9286 19.231 28.9286 21.3782V21.4286C28.9286 21.9969 28.7027 22.542 28.3009 22.9438C27.8991 23.3456 27.354 23.5714 26.7857 23.5714H20.3571V27.8571C20.3571 29.0406 19.3977 30 18.2143 30C17.0308 30 16.0714 29.0406 16.0714 27.8571V2.14286C16.0714 1.40019 16.456 0.710479 17.0877 0.320036ZM2.14285 0.535714C3.03044 0.535714 3.74999 1.25526 3.74999 2.14286V7.5C3.74999 8.49456 4.14507 9.44839 4.84833 10.1517C5.15474 10.458 5.50868 10.7059 5.89285 10.8882V2.14286C5.89285 1.25526 6.6124 0.535714 7.49999 0.535714C8.38758 0.535714 9.10713 1.25526 9.10713 2.14286V10.8882C9.49446 10.7044 9.84786 10.4554 10.1516 10.1517C10.4999 9.80342 10.7761 9.39004 10.9645 8.93507C11.153 8.4801 11.25 7.99245 11.25 7.5V2.14286C11.25 1.25526 11.9695 0.535714 12.8571 0.535714C13.7447 0.535714 14.4643 1.25526 14.4643 2.14286V7.5C14.4643 8.41457 14.2841 9.32016 13.9342 10.1651C13.5842 11.0101 13.0712 11.7778 12.4245 12.4245C11.7778 13.0712 11.0101 13.5842 10.1651 13.9342C9.99338 14.0053 9.81914 14.0694 9.64285 14.1264V27.8571C9.64285 29.0406 8.68345 30 7.49999 30C6.31653 30 5.35713 29.0406 5.35713 27.8571V14.1264C4.31785 13.7903 3.36224 13.2112 2.57549 12.4245C1.26944 11.1184 0.535706 9.34704 0.535706 7.5V2.14286C0.535706 1.25526 1.25525 0.535714 2.14285 0.535714Z" fill="black"/>
</g>
<defs>
<clipPath id="clip0_2013_254">
<rect width="30" height="30" fill="white"/>
</clipPath>
</defs>
</svg>
