<svg width="33" height="33" viewBox="0 0 33 33" fill="none" xmlns="http://www.w3.org/2000/svg">
<path fill-rule="evenodd" clip-rule="evenodd" d="M16.4819 6.1438C14.2062 3.87658 11.8318 2.75225 9.55155 2.58395C6.97192 2.39356 4.69621 3.4419 3.05515 5.09669C-0.170756 8.34954 -1.15503 14.2302 2.8731 18.2769C2.88454 18.2883 2.8962 18.2996 2.90808 18.3106L15.6801 30.1247C16.1319 30.5427 16.829 30.5427 17.2807 30.1247L30.0529 18.3106L30.0802 18.2844C34.1677 14.2525 33.1791 8.37165 29.94 5.11889C28.293 3.46502 26.0099 2.41633 23.4252 2.60172C21.1398 2.76568 18.7598 3.88321 16.4819 6.1438ZM15.6785 10.8141C15.4536 10.2924 14.9489 9.94653 14.3812 9.92508C13.8135 9.90363 13.2841 10.2105 13.0206 10.7137L11.0034 14.5647H8.28539C7.47177 14.5647 6.81217 15.2242 6.81217 16.0379C6.81217 16.8515 7.47177 17.5111 8.28539 17.5111H11.8948C12.4428 17.5111 12.9455 17.2069 13.1998 16.7215L14.1963 14.8191L16.6557 20.525C16.8598 20.9984 17.2963 21.3307 17.8069 21.4012C18.3176 21.4718 18.8279 21.2704 19.1527 20.8701L21.8779 17.5111H24.7118C25.5253 17.5111 26.185 16.8515 26.185 16.0379C26.185 15.2242 25.5253 14.5647 24.7118 14.5647H21.176C20.732 14.5647 20.3117 14.7649 20.032 15.1097L18.3981 17.1236L15.6785 10.8141Z" fill="black"/>
</svg>
