<svg width="30" height="30" viewBox="0 0 30 30" fill="none" xmlns="http://www.w3.org/2000/svg">
<g clip-path="url(#clip0_2013_251)">
<path fill-rule="evenodd" clip-rule="evenodd" d="M10.712 0C9.69553 0 8.65609 0.328757 7.83431 1.00506C7.00074 1.69107 6.42516 2.7213 6.42516 3.90731V7.2126H3.21429C1.48026 7.2126 0 8.57336 0 10.3421V26.8067C0 28.5754 1.48026 29.9361 3.21429 29.9361H26.7857C28.5197 29.9361 30 28.5754 30 26.8067V10.3421C30 8.57336 28.5197 7.2126 26.7857 7.2126H23.5749V3.90731C23.5749 2.7213 22.9993 1.69107 22.1657 1.00506C21.344 0.328757 20.3045 0 19.288 0H10.712ZM19.2892 7.2126V4.28571H10.712L10.7109 7.2126H19.2892ZM9.375 18.5744C9.375 17.8347 9.97461 17.2351 10.7143 17.2351H13.6607V14.2887C13.6607 13.549 14.2603 12.9494 15 12.9494C15.7397 12.9494 16.3393 13.549 16.3393 14.2887V17.2351H19.2857C20.0254 17.2351 20.625 17.8347 20.625 18.5744C20.625 19.3141 20.0254 19.9137 19.2857 19.9137H16.3393V22.86C16.3393 23.5997 15.7397 24.1993 15 24.1993C14.2603 24.1993 13.6607 23.5997 13.6607 22.86V19.9137H10.7143C9.97461 19.9137 9.375 19.3141 9.375 18.5744Z" fill="black"/>
</g>
<defs>
<clipPath id="clip0_2013_251">
<rect width="30" height="30" fill="white"/>
</clipPath>
</defs>
</svg>
