<svg width="22" height="22" viewBox="0 0 22 22" fill="none" xmlns="http://www.w3.org/2000/svg">
<g clip-path="url(#clip0_1_580)">
<path fill-rule="evenodd" clip-rule="evenodd" d="M7.10457 0.216651C6.80116 -0.072217 6.32447 -0.072217 6.02104 0.216651L0.243945 5.71665C0.08817 5.86495 0 6.07063 0 6.28571V21.2143C0 21.6482 0.351777 22 0.785714 22H4.99138V18.8571C4.99138 17.9892 5.69494 17.2857 6.5628 17.2857C7.43069 17.2857 8.13423 17.9892 8.13423 18.8571V22H12.3399C12.7738 22 13.1256 21.6482 13.1256 21.2143V6.28571C13.1256 6.07063 13.0374 5.86495 12.8817 5.71665L7.10457 0.216651ZM15.3507 10.2143C15.3507 9.78035 15.7025 9.42857 16.1364 9.42857H21.2143C21.6482 9.42857 22 9.78035 22 10.2143V21.2143C22 21.6482 21.6482 22 21.2143 22H16.1364C15.7025 22 15.3507 21.6482 15.3507 21.2143V10.2143ZM3.41424 12.199C3.41424 11.6565 3.85396 11.2168 4.39639 11.2168H8.72921C9.27163 11.2168 9.71135 11.6565 9.71135 12.199C9.71135 12.7414 9.27163 13.1811 8.72921 13.1811H4.39639C3.85396 13.1811 3.41424 12.7414 3.41424 12.199ZM4.39639 7.11956C3.85396 7.11956 3.41424 7.55928 3.41424 8.1017C3.41424 8.64413 3.85396 9.08385 4.39639 9.08385H8.72921C9.27163 9.08385 9.71135 8.64413 9.71135 8.1017C9.71135 7.55928 9.27163 7.11956 8.72921 7.11956H4.39639Z" fill="#002E45"/>
</g>
<defs>
<clipPath id="clip0_1_580">
<rect width="22" height="22" fill="white"/>
</clipPath>
</defs>
</svg>
