<svg width="41" height="41" viewBox="0 0 41 41" fill="none" xmlns="http://www.w3.org/2000/svg">
<path d="M20.5 20.5C18.6208 20.5 17.0121 19.8309 15.674 18.4928C14.3358 17.1546 13.6667 15.5459 13.6667 13.6667C13.6667 11.7875 14.3358 10.1789 15.674 8.84067C17.0121 7.50247 18.6208 6.83337 20.5 6.83337C22.3792 6.83337 23.9878 7.50247 25.326 8.84067C26.6642 10.1789 27.3333 11.7875 27.3333 13.6667C27.3333 15.5459 26.6642 17.1546 25.326 18.4928C23.9878 19.8309 22.3792 20.5 20.5 20.5ZM6.83333 34.1667V29.3834C6.83333 28.4153 7.08246 27.5256 7.58072 26.7141C8.07899 25.9026 8.74097 25.2834 9.56666 24.8563C11.3319 23.9737 13.1257 23.3117 14.9479 22.8704C16.7701 22.429 18.6208 22.2084 20.5 22.2084C22.3792 22.2084 24.2299 22.429 26.0521 22.8704C27.8743 23.3117 29.6681 23.9737 31.4333 24.8563C32.259 25.2834 32.921 25.9026 33.4193 26.7141C33.9175 27.5256 34.1667 28.4153 34.1667 29.3834V34.1667H6.83333ZM10.25 30.75H30.75V29.3834C30.75 29.0702 30.6717 28.7855 30.5151 28.5292C30.3585 28.273 30.1521 28.0737 29.8958 27.9313C28.3583 27.1625 26.8066 26.586 25.2406 26.2016C23.6746 25.8172 22.0944 25.625 20.5 25.625C18.9056 25.625 17.3253 25.8172 15.7594 26.2016C14.1934 26.586 12.6417 27.1625 11.1042 27.9313C10.8479 28.0737 10.6415 28.273 10.4849 28.5292C10.3283 28.7855 10.25 29.0702 10.25 29.3834V30.75ZM20.5 17.0834C21.4396 17.0834 22.2439 16.7488 22.913 16.0797C23.5821 15.4106 23.9167 14.6063 23.9167 13.6667C23.9167 12.7271 23.5821 11.9228 22.913 11.2537C22.2439 10.5846 21.4396 10.25 20.5 10.25C19.5604 10.25 18.7561 10.5846 18.087 11.2537C17.4179 11.9228 17.0833 12.7271 17.0833 13.6667C17.0833 14.6063 17.4179 15.4106 18.087 16.0797C18.7561 16.7488 19.5604 17.0834 20.5 17.0834Z" fill="#1D1B20"/>
</svg>
