<?xml version="1.0" encoding="utf-8" standalone="no"?>
<!DOCTYPE svg PUBLIC "-//W3C//DTD SVG 1.1//EN"
  "http://www.w3.org/Graphics/SVG/1.1/DTD/svg11.dtd">
<svg xmlns:xlink="http://www.w3.org/1999/xlink" width="69.84pt" height="69.84pt" viewBox="0 0 69.84 69.84" xmlns="http://www.w3.org/2000/svg" version="1.1">
 <metadata>
  <rdf:RDF xmlns:dc="http://purl.org/dc/elements/1.1/" xmlns:cc="http://creativecommons.org/ns#" xmlns:rdf="http://www.w3.org/1999/02/22-rdf-syntax-ns#">
   <cc:Work>
    <dc:type rdf:resource="http://purl.org/dc/dcmitype/StillImage"/>
    <dc:date>2025-01-16T14:59:36.576404</dc:date>
    <dc:format>image/svg+xml</dc:format>
    <dc:creator>
     <cc:Agent>
      <dc:title>Matplotlib v3.9.2, https://matplotlib.org/</dc:title>
     </cc:Agent>
    </dc:creator>
   </cc:Work>
  </rdf:RDF>
 </metadata>
 <defs>
  <style type="text/css">*{stroke-linejoin: round; stroke-linecap: butt}</style>
 </defs>
 <g id="figure_1">
  <g id="patch_1">
   <path d="M 0 69.84 
L 69.84 69.84 
L 69.84 0 
L 0 0 
L 0 69.84 
z
" style="fill: none"/>
  </g>
  <g id="axes_1">
   <g id="patch_2">
    <path d="M 34.92 12.744 
C 31.420567 12.744 27.970324 13.57233 24.852307 15.161039 
C 21.734289 16.749749 19.036154 19.054174 16.979239 21.885274 
C 14.922324 24.716375 13.564455 27.99456 13.017023 31.450909 
C 12.469591 34.907258 12.747986 38.444602 13.829371 41.772761 
L 24.374685 38.34638 
C 23.833993 36.682301 23.694796 34.913629 23.968512 33.185455 
C 24.242228 31.45728 24.921162 29.818187 25.94962 28.402637 
C 26.978077 26.987087 28.327145 25.834874 29.886153 25.04052 
C 31.445162 24.246165 33.170284 23.832 34.92 23.832 
z
" style="fill: #ac3434; stroke: #ffffff; stroke-linejoin: miter"/>
   </g>
   <g id="patch_3">
    <path d="M 13.82937 41.77276 
C 15.646137 47.364196 19.613913 52.009864 24.852303 54.678958 
C 30.090693 57.348053 36.181317 57.827398 41.772754 56.010631 
C 47.364191 54.193866 52.00986 50.226093 54.678956 44.987703 
C 57.348053 39.749314 57.827398 33.65869 56.010634 28.067253 
L 45.465317 31.493626 
C 46.373699 34.289345 46.134026 37.334657 44.799478 39.953852 
C 43.46493 42.573046 41.142095 44.556933 38.346377 45.465316 
C 35.550659 46.373699 32.505347 46.134026 29.886151 44.799479 
C 27.266956 43.464932 25.283069 41.142098 24.374685 38.34638 
z
" style="fill: #ac6a34; stroke: #ffffff; stroke-linejoin: miter"/>
   </g>
   <g id="patch_4">
    <path d="M 56.010634 28.067253 
C 54.563699 23.614039 51.742862 19.731483 47.954732 16.979244 
C 44.166603 14.227005 39.602389 12.744 34.920003 12.744 
L 34.920002 23.832 
C 37.261194 23.832 39.543302 24.573503 41.437366 25.949622 
C 43.331431 27.325742 44.74185 29.26702 45.465317 31.493626 
z
" style="fill: #333333; stroke: #ffffff; stroke-linejoin: miter"/>
   </g>
   <g id="patch_5">
    <path d="M 34.92 46.008 
C 37.860572 46.008 40.681102 44.839698 42.7604 42.7604 
C 44.839698 40.681102 46.008 37.860572 46.008 34.92 
C 46.008 31.979428 44.839698 29.158898 42.7604 27.0796 
C 40.681102 25.000302 37.860572 23.832 34.92 23.832 
C 31.979428 23.832 29.158898 25.000302 27.0796 27.0796 
C 25.000302 29.158898 23.832 31.979428 23.832 34.92 
C 23.832 37.860572 25.000302 40.681102 27.0796 42.7604 
C 29.158898 44.839698 31.979428 46.008 34.92 46.008 
L 34.92 46.008 
z
" clip-path="url(#p7ecc01241b)" style="fill: none"/>
   </g>
  </g>
 </g>
 <defs>
  <clipPath id="p7ecc01241b">
   <rect x="7.2" y="7.2" width="55.44" height="55.44"/>
  </clipPath>
 </defs>
</svg>
