<svg width="30" height="30" viewBox="0 0 30 30" fill="none" xmlns="http://www.w3.org/2000/svg">
<g clip-path="url(#clip0_2013_249)">
<path fill-rule="evenodd" clip-rule="evenodd" d="M29.5496 11.8048C29.5496 17.9543 24.5644 22.9395 18.4149 22.9395C12.2654 22.9395 7.28027 17.9543 7.28027 11.8048C7.28027 5.65532 12.2654 0.670166 18.4149 0.670166C24.5644 0.670166 29.5496 5.65532 29.5496 11.8048ZM18.4148 3.39634C19.3024 3.39634 20.0219 4.11589 20.0219 5.00349V5.68271C20.787 5.86472 21.4624 6.27851 21.9679 6.84319C22.2932 7.20669 22.5504 7.63479 22.7175 8.10733C23.0132 8.94418 22.5746 9.86239 21.7378 10.1582C20.9008 10.454 19.9827 10.0153 19.6869 9.17848C19.6621 9.10856 19.6234 9.04339 19.5728 8.98684C19.465 8.86633 19.3133 8.79426 19.1427 8.79426H18.4255L18.4148 8.79431L18.4041 8.79426H17.4525C17.2636 8.79426 17.1104 8.94741 17.1104 9.13633C17.1104 9.29709 17.2224 9.43616 17.3794 9.47051L19.9528 10.0334C21.6936 10.4142 22.9335 11.9564 22.9335 13.7373C22.9335 15.5277 21.6919 17.0297 20.0219 17.4264V18.1056C20.0219 18.9932 19.3024 19.7127 18.4148 19.7127C17.5272 19.7127 16.8076 18.9932 16.8076 18.1056V17.4265C15.5498 17.1277 14.5367 16.2024 14.1123 15.0016C13.8165 14.1647 14.2551 13.2465 15.0919 12.9507C15.9288 12.6549 16.847 13.0936 17.1428 13.9304C17.2227 14.1565 17.4384 14.3146 17.6869 14.3146H19.1427C19.4604 14.3146 19.7193 14.0565 19.7193 13.7373C19.7193 13.4658 19.53 13.2312 19.2659 13.1735L16.6925 12.6105C15.0598 12.2534 13.8961 10.8076 13.8961 9.13633C13.8961 7.39241 15.1514 5.94165 16.8076 5.63829V5.00349C16.8076 4.11589 17.5272 3.39634 18.4148 3.39634ZM18.4149 25.6181C19.1146 25.6181 19.8021 25.5662 20.4738 25.4657C18.4313 27.8996 15.3668 29.4467 11.9409 29.4467C5.79134 29.4467 0.806183 24.4616 0.806183 18.3121C0.806183 14.9065 2.33504 11.8581 4.74387 9.81563C4.65019 10.4652 4.6017 11.1294 4.6017 11.8049C4.6017 19.4337 10.7861 25.6181 18.4149 25.6181Z" fill="black"/>
</g>
<defs>
<clipPath id="clip0_2013_249">
<rect width="30" height="30" fill="white"/>
</clipPath>
</defs>
</svg>
