<svg width="30" height="30" viewBox="0 0 30 30" fill="none" xmlns="http://www.w3.org/2000/svg">
<g clip-path="url(#clip0_2013_247)">
<path fill-rule="evenodd" clip-rule="evenodd" d="M15.7477 4.45858C17.2673 1.50876 20.422 0.752604 22.0749 0.827308C23.2603 0.880879 23.7943 1.93343 23.7943 2.73566V6.49301C25.2954 7.24762 26.2993 8.25356 26.9154 9.5073C27.5229 10.7435 27.7071 12.1319 27.7395 13.5552L29.2288 14.7785C29.4765 14.982 29.6201 15.2858 29.6201 15.6064V20.3608C29.6201 20.5168 29.586 20.671 29.5202 20.8124C28.3466 23.3374 26.2656 24.7018 23.7943 25.6699V27.0351C23.7943 28.2184 22.8349 29.178 21.6514 29.178H17.9016C16.7182 29.178 15.7588 28.2184 15.7588 27.0351V25.9971H11.1717V26.8676C11.1717 28.0511 10.2123 29.0104 9.02887 29.0104H5.24531C4.06325 29.0104 3.10231 28.0536 3.10243 26.8684C3.10256 25.6622 3.10271 23.7923 3.10239 23.1891C3.08465 23.1287 3.05848 23.0449 3.02208 22.9305L2.97935 22.7963C2.90336 22.5583 2.80419 22.2476 2.69548 21.8856L2.68593 21.8537C1.95023 19.4037 0.584063 14.854 2.54182 10.515C2.6876 10.1918 2.85142 9.87547 3.03453 9.56743C2.02238 8.76639 1.00773 7.63515 0.444821 6.12667C0.186222 5.43369 0.538365 4.66226 1.23135 4.40366C1.92434 4.14506 2.69576 4.49722 2.95436 5.1902C3.3062 6.1331 3.97233 6.90097 4.72916 7.49257C5.40324 6.88091 6.20266 6.33868 7.14382 5.88772C9.2804 4.86395 12.0944 4.33488 15.7477 4.45858ZM15.8046 10.5042C15.8046 11.2439 15.205 11.8435 14.4653 11.8435H10.4904C9.75071 11.8435 9.1511 11.2439 9.1511 10.5042C9.1511 9.76455 9.75071 9.16494 10.4904 9.16494H14.4653C15.205 9.16494 15.8046 9.76455 15.8046 10.5042ZM21.0718 14.8273C21.9778 14.8273 22.7124 14.0928 22.7124 13.1867C22.7124 12.2806 21.9778 11.5461 21.0718 11.5461C20.1657 11.5461 19.4312 12.2806 19.4312 13.1867C19.4312 14.0928 20.1657 14.8273 21.0718 14.8273Z" fill="black"/>
</g>
<defs>
<clipPath id="clip0_2013_247">
<rect width="30" height="30" fill="white"/>
</clipPath>
</defs>
</svg>
