<?xml version="1.0" encoding="utf-8" standalone="no"?>
<!DOCTYPE svg PUBLIC "-//W3C//DTD SVG 1.1//EN"
  "http://www.w3.org/Graphics/SVG/1.1/DTD/svg11.dtd">
<svg xmlns:xlink="http://www.w3.org/1999/xlink" width="69.84pt" height="69.84pt" viewBox="0 0 69.84 69.84" xmlns="http://www.w3.org/2000/svg" version="1.1">
 <metadata>
  <rdf:RDF xmlns:dc="http://purl.org/dc/elements/1.1/" xmlns:cc="http://creativecommons.org/ns#" xmlns:rdf="http://www.w3.org/1999/02/22-rdf-syntax-ns#">
   <cc:Work>
    <dc:type rdf:resource="http://purl.org/dc/dcmitype/StillImage"/>
    <dc:date>2025-01-16T14:59:36.932679</dc:date>
    <dc:format>image/svg+xml</dc:format>
    <dc:creator>
     <cc:Agent>
      <dc:title>Matplotlib v3.9.2, https://matplotlib.org/</dc:title>
     </cc:Agent>
    </dc:creator>
   </cc:Work>
  </rdf:RDF>
 </metadata>
 <defs>
  <style type="text/css">*{stroke-linejoin: round; stroke-linecap: butt}</style>
 </defs>
 <g id="figure_1">
  <g id="patch_1">
   <path d="M 0 69.84 
L 69.84 69.84 
L 69.84 0 
L 0 0 
L 0 69.84 
z
" style="fill: none"/>
  </g>
  <g id="axes_1">
   <g id="patch_2">
    <path d="M 34.92 12.744 
C 31.503771 12.744 28.133299 13.533409 25.072379 15.050442 
C 22.011459 16.567475 19.342087 18.771495 17.273186 21.489999 
C 15.204284 24.208504 13.791275 27.368671 13.144749 30.723164 
C 12.498224 34.077657 12.635501 37.536617 13.545836 40.829323 
L 24.232918 37.874661 
C 23.77775 36.228309 23.709112 34.498829 24.032375 32.821582 
C 24.355637 31.144335 25.062142 29.564252 26.096593 28.205 
C 27.131043 26.845747 28.46573 25.743738 29.996189 24.985221 
C 31.526649 24.226704 33.211886 23.832 34.92 23.832 
z
" style="fill: #ac3434; stroke: #ffffff; stroke-linejoin: miter"/>
   </g>
   <g id="patch_3">
    <path d="M 13.545835 40.82932 
C 14.934801 45.853247 18.051551 50.23011 22.344879 53.185851 
C 26.638207 56.141592 31.839165 57.491055 37.027959 56.995586 
L 35.973979 45.957793 
C 33.379583 46.205527 30.779103 45.530796 28.632439 44.052925 
C 26.485776 42.575055 24.927401 40.386624 24.232918 37.87466 
z
" style="fill: #ac6a34; stroke: #ffffff; stroke-linejoin: miter"/>
   </g>
   <g id="patch_4">
    <path d="M 37.027959 56.995586 
C 42.698999 56.454069 47.948863 53.747577 51.679499 49.442197 
C 55.410134 45.136816 57.341946 39.555216 57.070882 33.864832 
C 56.799818 28.174448 54.346188 22.801742 50.223193 18.870474 
C 46.100198 14.939207 40.61684 12.744001 34.920003 12.744 
L 34.920002 23.832 
C 37.76842 23.832001 40.510099 24.929603 42.571596 26.895237 
C 44.633094 28.860871 45.859909 31.547224 45.995441 34.392416 
C 46.130973 37.237608 45.165067 40.028408 43.299749 42.181098 
C 41.434432 44.333788 38.8095 45.687034 35.973979 45.957793 
z
" style="fill: #333333; stroke: #ffffff; stroke-linejoin: miter"/>
   </g>
   <g id="patch_5">
    <path d="M 34.92 46.008 
C 37.860572 46.008 40.681102 44.839698 42.7604 42.7604 
C 44.839698 40.681102 46.008 37.860572 46.008 34.92 
C 46.008 31.979428 44.839698 29.158898 42.7604 27.0796 
C 40.681102 25.000302 37.860572 23.832 34.92 23.832 
C 31.979428 23.832 29.158898 25.000302 27.0796 27.0796 
C 25.000302 29.158898 23.832 31.979428 23.832 34.92 
C 23.832 37.860572 25.000302 40.681102 27.0796 42.7604 
C 29.158898 44.839698 31.979428 46.008 34.92 46.008 
L 34.92 46.008 
z
" clip-path="url(#p574d400505)" style="fill: none"/>
   </g>
  </g>
 </g>
 <defs>
  <clipPath id="p574d400505">
   <rect x="7.2" y="7.2" width="55.44" height="55.44"/>
  </clipPath>
 </defs>
</svg>
