<svg width="35" height="35" viewBox="0 0 35 35" fill="none" xmlns="http://www.w3.org/2000/svg">
<g clip-path="url(#clip0_1_674)">
<path d="M23.75 11.25C23.75 10.4292 23.5884 9.61652 23.2743 8.85822C22.9601 8.09995 22.4998 7.41095 21.9194 6.83057C21.3391 6.25022 20.6501 5.78985 19.8918 5.47575C19.1335 5.16165 18.3207 5 17.5 5H6.25C4.93823 5 3.65973 5.41272 2.59555 6.17972C1.5314 6.94675 0.735545 8.02912 0.32073 9.27357C-0.0940873 10.518 -0.106836 11.8615 0.28429 13.1136C0.675417 14.3657 1.45059 15.463 2.5 16.25V28.75C2.5 29.413 2.7634 30.049 3.23222 30.5177C3.70107 30.9865 4.33695 31.25 5 31.25H18.75C19.413 31.25 20.0489 30.9865 20.5178 30.5177C20.9866 30.049 21.25 29.413 21.25 28.75V16.25C22.0277 15.6692 22.6588 14.9146 23.0928 14.0464C23.5269 13.1782 23.7519 12.2206 23.75 11.25Z" fill="black"/>
<path fill-rule="evenodd" clip-rule="evenodd" d="M26.7388 7.42317C27.2413 8.63643 27.5 9.92925 27.5 11.2425C27.503 12.7978 27.1425 14.3323 26.4468 15.7234C26.3603 15.8967 26.2687 16.0672 26.1725 16.2346H32.5C32.5068 16.2346 32.5135 16.2347 32.5202 16.2347C33.2885 15.656 33.9125 14.907 34.3428 14.0464C34.7767 13.1782 35.002 12.2206 35 11.25C35 10.4292 34.8382 9.61652 34.5243 8.85822C34.21 8.09995 33.7498 7.41095 33.1693 6.83057C32.589 6.25022 31.9 5.78985 31.1418 5.47575C30.3835 5.16165 29.5707 5 28.75 5H25.3063C25.8945 5.7347 26.3773 6.55025 26.7388 7.42317ZM32.5 19.3596H24.9999V28.75C24.9999 29.6187 24.819 30.469 24.4781 31.25H30C30.663 31.25 31.2987 30.9865 31.7677 30.5177C32.2365 30.049 32.5 29.413 32.5 28.75V19.3596Z" fill="black"/>
</g>
<defs>
<clipPath id="clip0_1_674">
<rect width="35" height="35" fill="white"/>
</clipPath>
</defs>
</svg>
