<svg width="33" height="33" viewBox="0 0 33 33" fill="none" xmlns="http://www.w3.org/2000/svg">
<path fill-rule="evenodd" clip-rule="evenodd" d="M16.4819 6.14383C14.2062 3.87661 11.8318 2.75228 9.55153 2.58398C6.9719 2.39359 4.6962 3.44193 3.05513 5.09672C-0.170771 8.34957 -1.15505 14.2303 2.87309 18.2769C2.88452 18.2884 2.89619 18.2996 2.90807 18.3106L15.6801 30.1248C16.1319 30.5427 16.829 30.5427 17.2807 30.1248L30.0529 18.3106L30.0802 18.2845C34.1677 14.2525 33.1791 8.37168 29.94 5.11892C28.293 3.46506 26.0099 2.41636 23.4252 2.60175C21.1397 2.76571 18.7598 3.88324 16.4819 6.14383ZM15.6785 10.8141C15.4536 10.2925 14.9488 9.94656 14.3812 9.92511C13.8135 9.90366 13.2841 10.2105 13.0205 10.7137L11.0033 14.5647H8.28537C7.47176 14.5647 6.81216 15.2243 6.81216 16.0379C6.81216 16.8515 7.47176 17.5111 8.28537 17.5111H11.8947C12.4428 17.5111 12.9455 17.2069 13.1998 16.7215L14.1963 14.8191L16.6557 20.5251C16.8597 20.9984 17.2963 21.3307 17.8069 21.4013C18.3175 21.4718 18.8279 21.2704 19.1526 20.8701L21.8779 17.5111H24.7118C25.5253 17.5111 26.185 16.8515 26.185 16.0379C26.185 15.2243 25.5253 14.5647 24.7118 14.5647H21.176C20.732 14.5647 20.3117 14.7649 20.032 15.1097L18.3981 17.1236L15.6785 10.8141Z" fill="black"/>
</svg>
