<svg width="30" height="30" viewBox="0 0 30 30" fill="none" xmlns="http://www.w3.org/2000/svg">
<path fill-rule="evenodd" clip-rule="evenodd" d="M10.039 5.19096C10.039 2.45106 12.2601 0.229919 15 0.229919C17.7399 0.229919 19.9611 2.45106 19.9611 5.19096C19.9611 7.93085 17.7399 10.152 15 10.152C12.2601 10.152 10.039 7.93085 10.039 5.19096ZM5.24231 13.3167C6.25202 12.3584 7.59099 11.8241 8.98305 11.8241C10.3751 11.8241 11.7141 12.3584 12.7238 13.3167L12.7441 13.3359L14.9999 15.5923L17.2758 13.3164C18.2855 12.3581 19.6248 11.8241 21.0168 11.8241C22.4089 11.8241 23.7478 12.3584 24.7575 13.3167C25.2589 13.7928 25.6586 14.3662 25.9313 15.0016C26.2041 15.637 26.3449 16.3212 26.3449 17.0127C26.3449 17.7041 26.2041 18.3884 25.9313 19.0238C25.6594 19.6571 25.2617 20.2287 24.7626 20.704L15.7467 29.4671C15.3309 29.8712 14.669 29.8712 14.2532 29.4671L5.23734 20.704C4.73816 20.2287 4.34055 19.6571 4.06858 19.0238C3.79573 18.3884 3.65503 17.7041 3.65503 17.0127C3.65503 16.3212 3.79573 15.637 4.06858 15.0016C4.34141 14.3662 4.7409 13.7928 5.24231 13.3167Z" fill="black"/>
</svg>
