<svg width="41" height="41" viewBox="0 0 41 41" fill="none" xmlns="http://www.w3.org/2000/svg">
<path d="M20.5 20.5C18.6208 20.5 17.0121 19.8309 15.674 18.4927C14.3358 17.1545 13.6667 15.5458 13.6667 13.6667C13.6667 11.7875 14.3358 10.1788 15.674 8.84062C17.0121 7.50243 18.6208 6.83333 20.5 6.83333C22.3792 6.83333 23.9878 7.50243 25.326 8.84062C26.6642 10.1788 27.3333 11.7875 27.3333 13.6667C27.3333 15.5458 26.6642 17.1545 25.326 18.4927C23.9878 19.8309 22.3792 20.5 20.5 20.5ZM6.83333 34.1667V29.3833C6.83333 28.4153 7.08246 27.5255 7.58072 26.7141C8.07899 25.9026 8.74097 25.2833 9.56666 24.8562C11.3319 23.9736 13.1257 23.3116 14.9479 22.8703C16.7701 22.429 18.6208 22.2083 20.5 22.2083C22.3792 22.2083 24.2299 22.429 26.0521 22.8703C27.8743 23.3116 29.6681 23.9736 31.4333 24.8562C32.259 25.2833 32.921 25.9026 33.4193 26.7141C33.9175 27.5255 34.1667 28.4153 34.1667 29.3833V34.1667H6.83333ZM10.25 30.75H30.75V29.3833C30.75 29.0701 30.6717 28.7854 30.5151 28.5292C30.3585 28.2729 30.1521 28.0736 29.8958 27.9312C28.3583 27.1625 26.8066 26.5859 25.2406 26.2016C23.6746 25.8172 22.0944 25.625 20.5 25.625C18.9056 25.625 17.3253 25.8172 15.7594 26.2016C14.1934 26.5859 12.6417 27.1625 11.1042 27.9312C10.8479 28.0736 10.6415 28.2729 10.4849 28.5292C10.3283 28.7854 10.25 29.0701 10.25 29.3833V30.75ZM20.5 17.0833C21.4396 17.0833 22.2439 16.7488 22.913 16.0797C23.5821 15.4106 23.9167 14.6062 23.9167 13.6667C23.9167 12.7271 23.5821 11.9227 22.913 11.2536C22.2439 10.5845 21.4396 10.25 20.5 10.25C19.5604 10.25 18.7561 10.5845 18.087 11.2536C17.4179 11.9227 17.0833 12.7271 17.0833 13.6667C17.0833 14.6062 17.4179 15.4106 18.087 16.0797C18.7561 16.7488 19.5604 17.0833 20.5 17.0833Z" fill="#1D1B20"/>
</svg>
