<svg width="30" height="30" viewBox="0 0 30 30" fill="none" xmlns="http://www.w3.org/2000/svg">
<g clip-path="url(#clip0_1_121)">
<path fill-rule="evenodd" clip-rule="evenodd" d="M15.7477 4.4586C17.2673 1.50877 20.422 0.752619 22.0748 0.827323C23.2603 0.880895 23.7943 1.93344 23.7943 2.73568V6.49303C25.2953 7.24763 26.2993 8.25358 26.9153 9.50732C27.5228 10.7435 27.7071 12.1319 27.7395 13.5552L29.2288 14.7785C29.4765 14.982 29.6201 15.2858 29.6201 15.6064V20.3608C29.6201 20.5168 29.586 20.671 29.5202 20.8125C28.3466 23.3374 26.2656 24.7018 23.7943 25.6699V27.0351C23.7943 28.2184 22.8349 29.178 21.6514 29.178H17.9016C16.7182 29.178 15.7588 28.2184 15.7588 27.0351V25.9971H11.1717V26.8676C11.1717 28.0511 10.2123 29.0104 9.02886 29.0104H5.2453C4.06323 29.0104 3.10229 28.0536 3.10242 26.8684C3.10255 25.6622 3.1027 23.7924 3.10238 23.1891C3.08463 23.1287 3.05847 23.0449 3.02206 22.9305L2.97933 22.7964C2.90335 22.5583 2.80418 22.2476 2.69547 21.8856L2.68591 21.8537C1.95021 19.4037 0.584048 14.854 2.54181 10.515C2.68758 10.1919 2.85141 9.87548 3.03451 9.56745C2.02236 8.7664 1.00772 7.63517 0.444805 6.12668C0.186207 5.4337 0.53835 4.66228 1.23134 4.40368C1.92433 4.14508 2.69575 4.49723 2.95435 5.19021C3.30618 6.13311 3.97231 6.90098 4.72915 7.49258C5.40323 6.88093 6.20264 6.3387 7.14381 5.88773C9.28038 4.86396 12.0944 4.33489 15.7477 4.4586ZM15.8046 10.5042C15.8046 11.2439 15.205 11.8435 14.4653 11.8435H10.4904C9.7507 11.8435 9.15108 11.2439 9.15108 10.5042C9.15108 9.76457 9.7507 9.16496 10.4904 9.16496H14.4653C15.205 9.16496 15.8046 9.76457 15.8046 10.5042ZM21.0718 14.8273C21.9778 14.8273 22.7123 14.0928 22.7123 13.1867C22.7123 12.2806 21.9778 11.5461 21.0718 11.5461C20.1657 11.5461 19.4311 12.2806 19.4311 13.1867C19.4311 14.0928 20.1657 14.8273 21.0718 14.8273Z" fill="black"/>
</g>
<defs>
<clipPath id="clip0_1_121">
<rect width="30" height="30" fill="white"/>
</clipPath>
</defs>
</svg>
