<svg width="12" height="12" viewBox="0 0 12 12" fill="none" xmlns="http://www.w3.org/2000/svg">
<g clip-path="url(#clip0_2013_456)">
<path d="M10.75 3.25H9.25V1.25C9.25 0.95 9.05 0.75 8.75 0.75H3.25C2.95 0.75 2.75 0.95 2.75 1.25V3.25H1.25C0.95 3.25 0.75 3.45 0.75 3.75V10.75C0.75 11.05 0.95 11.25 1.25 11.25H10.75C11.05 11.25 11.25 11.05 11.25 10.75V3.75C11.25 3.45 11.05 3.25 10.75 3.25ZM3.75 9.25H3.25C2.95 9.25 2.75 9.05 2.75 8.75C2.75 8.45 2.95 8.25 3.25 8.25H3.75C4.05 8.25 4.25 8.45 4.25 8.75C4.25 9.05 4.05 9.25 3.75 9.25ZM3.75 7.25H3.25C2.95 7.25 2.75 7.05 2.75 6.75C2.75 6.45 2.95 6.25 3.25 6.25H3.75C4.05 6.25 4.25 6.45 4.25 6.75C4.25 7.05 4.05 7.25 3.75 7.25ZM6.25 9.25H5.75C5.45 9.25 5.25 9.05 5.25 8.75C5.25 8.45 5.45 8.25 5.75 8.25H6.25C6.55 8.25 6.75 8.45 6.75 8.75C6.75 9.05 6.55 9.25 6.25 9.25ZM6.25 7.25H5.75C5.45 7.25 5.25 7.05 5.25 6.75C5.25 6.45 5.45 6.25 5.75 6.25H6.25C6.55 6.25 6.75 6.45 6.75 6.75C6.75 7.05 6.55 7.25 6.25 7.25ZM6.75 4.5H6.5V4.75C6.5 5.05 6.3 5.25 6 5.25C5.7 5.25 5.5 5.05 5.5 4.75V4.5H5.25C4.95 4.5 4.75 4.3 4.75 4C4.75 3.7 4.95 3.5 5.25 3.5H5.5V3.25C5.5 2.95 5.7 2.75 6 2.75C6.3 2.75 6.5 2.95 6.5 3.25V3.5H6.75C7.05 3.5 7.25 3.7 7.25 4C7.25 4.3 7.05 4.5 6.75 4.5ZM8.75 9.25H8.25C7.95 9.25 7.75 9.05 7.75 8.75C7.75 8.45 7.95 8.25 8.25 8.25H8.75C9.05 8.25 9.25 8.45 9.25 8.75C9.25 9.05 9.05 9.25 8.75 9.25ZM8.75 7.25H8.25C7.95 7.25 7.75 7.05 7.75 6.75C7.75 6.45 7.95 6.25 8.25 6.25H8.75C9.05 6.25 9.25 6.45 9.25 6.75C9.25 7.05 9.05 7.25 8.75 7.25Z" fill="#333333"/>
</g>
<defs>
<clipPath id="clip0_2013_456">
<rect width="12" height="12" fill="white"/>
</clipPath>
</defs>
</svg>
