<svg width="22" height="22" viewBox="0 0 22 22" fill="none" xmlns="http://www.w3.org/2000/svg">
<g clip-path="url(#clip0_1_564)">
<path fill-rule="evenodd" clip-rule="evenodd" d="M9.82143 0H5.5C5.13414 0 4.81668 0.252536 4.73442 0.609039L0.0201283 21.0377C-0.0337126 21.2709 0.0217725 21.516 0.170838 21.7035C0.319904 21.8908 0.546279 22 0.785722 22H9.82143V18.6153C9.82143 17.9644 10.3491 17.4367 11 17.4367C11.6509 17.4367 12.1786 17.9644 12.1786 18.6153V22H21.2143C21.4538 22 21.6801 21.8908 21.8292 21.7035C21.9783 21.516 22.0338 21.2709 21.9799 21.0377L17.2656 0.609039C17.1833 0.252536 16.8658 0 16.5 0H12.1786V3.38462C12.1786 4.03552 11.6509 4.56319 11 4.56319C10.3491 4.56319 9.82143 4.03552 9.82143 3.38462V0ZM11 8.12905C11.6509 8.12905 12.1786 8.65672 12.1786 9.30762V12.6922C12.1786 13.3431 11.6509 13.8708 11 13.8708C10.3491 13.8708 9.82143 13.3431 9.82143 12.6922V9.30762C9.82143 8.65672 10.3491 8.12905 11 8.12905Z" fill="#002E45"/>
</g>
<defs>
<clipPath id="clip0_1_564">
<rect width="22" height="22" fill="white"/>
</clipPath>
</defs>
</svg>
