<svg width="22" height="22" viewBox="0 0 22 22" fill="none" xmlns="http://www.w3.org/2000/svg">
<g clip-path="url(#clip0_1_548)">
<path fill-rule="evenodd" clip-rule="evenodd" d="M10.9371 0.0307617C9.43428 0.0307617 7.98114 0.569224 6.84117 1.54854C5.86432 2.38773 5.17281 3.50303 4.85235 4.73986C3.6322 4.88452 2.48853 5.43492 1.61092 6.31253C0.579463 7.34398 0 8.74293 0 10.2016C0 11.6603 0.579463 13.0593 1.61092 14.0907C2.64145 15.1212 4.03882 15.7006 5.49612 15.7016H9.30287V20.3977C9.30287 21.2656 10.0064 21.9692 10.8743 21.9692C11.7422 21.9692 12.4457 21.2656 12.4457 20.3977V15.7016H16.5039C17.9611 15.7006 19.3586 15.1212 20.3891 14.0907C21.4206 13.0593 22 11.6603 22 10.2016C22 8.74293 21.4206 7.34398 20.3891 6.31253C19.4805 5.40398 18.2869 4.84612 17.0184 4.72608C16.6963 3.49475 16.0064 2.3846 15.0331 1.54854C13.8931 0.569224 12.44 0.0307617 10.9371 0.0307617Z" fill="#002E45"/>
</g>
<defs>
<clipPath id="clip0_1_548">
<rect width="22" height="22" fill="white"/>
</clipPath>
</defs>
</svg>
