<svg width="30" height="30" viewBox="0 0 30 30" fill="none" xmlns="http://www.w3.org/2000/svg">
<path fill-rule="evenodd" clip-rule="evenodd" d="M2.67856 24.9107V4.82143C2.67856 2.15863 4.83719 0 7.49999 0H22.5C25.1627 0 27.3214 2.15863 27.3214 4.82143V21.4286C27.3214 22.3161 26.6018 23.0357 25.7143 23.0357H25.1786V26.7857H25.7143C26.6018 26.7857 27.3214 27.5053 27.3214 28.3929C27.3214 29.2804 26.6018 30 25.7143 30H7.76784C4.9571 30 2.67856 27.7215 2.67856 24.9107ZM21.9643 23.0357H7.76784C6.73231 23.0357 5.89284 23.8753 5.89284 24.9107C5.89284 25.9461 6.73231 26.7857 7.76784 26.7857H21.9643V23.0357ZM23.1658 10.2263C22.9817 9.87049 22.6146 9.64703 22.2139 9.64703H17.2532C16.6614 9.64703 16.1817 10.1267 16.1817 10.7185C16.1817 11.3102 16.6614 11.7899 17.2532 11.7899H20.1421L16.0688 17.5404C15.8372 17.8673 15.8074 18.2961 15.9914 18.6519C16.1754 19.0077 16.5425 19.2312 16.9431 19.2312H22.524C23.1158 19.2312 23.5954 18.7515 23.5954 18.1597C23.5954 17.568 23.1158 17.0883 22.524 17.0883H19.015L23.0884 11.3378C23.3198 11.0109 23.3496 10.5821 23.1658 10.2263ZM12.4583 5.63434C12.1953 4.84551 11.4571 4.31344 10.6256 4.31344C9.79413 4.31344 9.05592 4.84551 8.79299 5.63434L7.34337 9.98316C7.33777 9.99872 7.33252 10.0144 7.32764 10.0303L6.50866 12.4873C6.32152 13.0487 6.62491 13.6555 7.18627 13.8426C7.74766 14.0297 8.35443 13.7263 8.54154 13.1649L9.12414 11.4171H12.1271L12.7097 13.1649C12.8968 13.7263 13.5036 14.0297 14.065 13.8426C14.6263 13.6555 14.9297 13.0487 14.7426 12.4873L13.9236 10.0303C13.9187 10.0144 13.9135 9.99872 13.9079 9.98316L12.4583 5.63434ZM9.83842 9.27429L10.6256 6.91271L11.4128 9.27429H9.83842Z" fill="black"/>
</svg>
