<?xml version="1.0" encoding="utf-8" standalone="no"?>
<!DOCTYPE svg PUBLIC "-//W3C//DTD SVG 1.1//EN"
  "http://www.w3.org/Graphics/SVG/1.1/DTD/svg11.dtd">
<svg xmlns:xlink="http://www.w3.org/1999/xlink" width="69.84pt" height="69.84pt" viewBox="0 0 69.84 69.84" xmlns="http://www.w3.org/2000/svg" version="1.1">
 <metadata>
  <rdf:RDF xmlns:dc="http://purl.org/dc/elements/1.1/" xmlns:cc="http://creativecommons.org/ns#" xmlns:rdf="http://www.w3.org/1999/02/22-rdf-syntax-ns#">
   <cc:Work>
    <dc:type rdf:resource="http://purl.org/dc/dcmitype/StillImage"/>
    <dc:date>2025-01-16T14:59:36.370163</dc:date>
    <dc:format>image/svg+xml</dc:format>
    <dc:creator>
     <cc:Agent>
      <dc:title>Matplotlib v3.9.2, https://matplotlib.org/</dc:title>
     </cc:Agent>
    </dc:creator>
   </cc:Work>
  </rdf:RDF>
 </metadata>
 <defs>
  <style type="text/css">*{stroke-linejoin: round; stroke-linecap: butt}</style>
 </defs>
 <g id="figure_1">
  <g id="patch_1">
   <path d="M 0 69.84 
L 69.84 69.84 
L 69.84 0 
L 0 0 
L 0 69.84 
z
" style="fill: none"/>
  </g>
  <g id="axes_1">
   <g id="patch_2">
    <path d="M 34.92 12.744 
C 29.223163 12.744 23.739801 14.939207 19.616807 18.870475 
C 15.493812 22.801743 13.040183 28.174443 12.769118 33.864827 
C 12.498052 39.555211 14.429865 45.136814 18.160501 49.442195 
C 21.891136 53.747576 27.141003 56.454069 32.812044 56.995586 
L 33.866022 45.957793 
C 31.030501 45.687034 28.405568 44.333788 26.54025 42.181098 
C 24.674933 40.028407 23.709026 37.237605 23.844559 34.392413 
C 23.980092 31.547221 25.206906 28.860871 27.268403 26.895238 
C 29.3299 24.929604 32.071582 23.832 34.92 23.832 
z
" style="fill: #ac3434; stroke: #ffffff; stroke-linejoin: miter"/>
   </g>
   <g id="patch_3">
    <path d="M 32.812042 56.995586 
C 35.740451 57.275214 38.695442 56.969371 41.504507 56.095912 
C 44.313571 55.222453 46.92096 53.798712 49.174456 51.907804 
C 51.427952 50.016897 53.282832 47.696349 54.630812 45.081637 
C 55.978792 42.466924 56.793117 39.609934 57.02625 36.677457 
L 45.973125 35.798729 
C 45.856558 37.264967 45.449396 38.693462 44.775406 40.000818 
C 44.101416 41.308175 43.173976 42.468448 42.047228 43.413902 
C 40.92048 44.359356 39.616785 45.071226 38.212253 45.507956 
C 36.807721 45.944685 35.330226 46.097607 33.866021 45.957793 
z
" style="fill: #ac6a34; stroke: #ffffff; stroke-linejoin: miter"/>
   </g>
   <g id="patch_4">
    <path d="M 57.02625 36.677457 
C 57.268774 33.626872 56.877238 30.558853 55.876342 27.666951 
C 54.875447 24.775049 53.286694 22.121392 51.210314 19.873384 
C 49.133934 17.625377 46.614523 15.831311 43.811038 14.604379 
C 41.007553 13.377448 37.980214 12.744 34.920003 12.744 
L 34.920002 23.832 
C 36.450107 23.832 37.963776 24.148724 39.365519 24.76219 
C 40.767262 25.375655 42.026967 26.272689 43.065157 27.396692 
C 44.103347 28.520696 44.897723 29.847524 45.398171 31.293476 
C 45.898619 32.739427 46.094387 34.273436 45.973125 35.798729 
z
" style="fill: #333333; stroke: #ffffff; stroke-linejoin: miter"/>
   </g>
   <g id="patch_5">
    <path d="M 34.92 46.008 
C 37.860572 46.008 40.681102 44.839698 42.7604 42.7604 
C 44.839698 40.681102 46.008 37.860572 46.008 34.92 
C 46.008 31.979428 44.839698 29.158898 42.7604 27.0796 
C 40.681102 25.000302 37.860572 23.832 34.92 23.832 
C 31.979428 23.832 29.158898 25.000302 27.0796 27.0796 
C 25.000302 29.158898 23.832 31.979428 23.832 34.92 
C 23.832 37.860572 25.000302 40.681102 27.0796 42.7604 
C 29.158898 44.839698 31.979428 46.008 34.92 46.008 
L 34.92 46.008 
z
" clip-path="url(#pe93deabbf4)" style="fill: none"/>
   </g>
  </g>
 </g>
 <defs>
  <clipPath id="pe93deabbf4">
   <rect x="7.2" y="7.2" width="55.44" height="55.44"/>
  </clipPath>
 </defs>
</svg>
