<svg width="30" height="30" viewBox="0 0 30 30" fill="none" xmlns="http://www.w3.org/2000/svg">
<path fill-rule="evenodd" clip-rule="evenodd" d="M10.039 5.19096C10.039 2.45106 12.2602 0.229919 15.0001 0.229919C17.74 0.229919 19.9611 2.45106 19.9611 5.19096C19.9611 7.93085 17.74 10.152 15.0001 10.152C12.2602 10.152 10.039 7.93085 10.039 5.19096ZM5.24234 13.3167C6.25205 12.3584 7.59102 11.8241 8.98308 11.8241C10.3752 11.8241 11.7141 12.3584 12.7238 13.3167L12.7441 13.3359L15 15.5923L17.2759 13.3164C18.2855 12.3581 19.6248 11.8241 21.0169 11.8241C22.4089 11.8241 23.7478 12.3584 24.7575 13.3167C25.2589 13.7928 25.6586 14.3662 25.9314 15.0016C26.2042 15.637 26.3449 16.3212 26.3449 17.0127C26.3449 17.7041 26.2042 18.3884 25.9314 19.0238C25.6594 19.6571 25.2617 20.2287 24.7627 20.704L15.7467 29.4671C15.3309 29.8712 14.669 29.8712 14.2532 29.4671L5.23737 20.704C4.73819 20.2287 4.34058 19.6571 4.06861 19.0238C3.79576 18.3884 3.65506 17.7041 3.65506 17.0127C3.65506 16.3212 3.79576 15.637 4.06861 15.0016C4.34144 14.3662 4.74093 13.7928 5.24234 13.3167Z" fill="black"/>
</svg>
