<svg width="30" height="30" viewBox="0 0 30 30" fill="none" xmlns="http://www.w3.org/2000/svg">
<path fill-rule="evenodd" clip-rule="evenodd" d="M0 6.42862C0 5.24517 0.959389 4.28577 2.14286 4.28577H27.8571C29.0406 4.28577 30 5.24517 30 6.42862V23.5715C30 24.755 29.0406 25.7143 27.8571 25.7143H2.14286C0.959391 25.7143 0 24.755 0 23.5715V6.42862ZM12.8571 11.7858C12.8571 13.561 11.4181 15.0001 9.64286 15.0001C7.86765 15.0001 6.42857 13.561 6.42857 11.7858C6.42857 10.0106 7.86765 8.57148 9.64286 8.57148C11.4181 8.57148 12.8571 10.0106 12.8571 11.7858ZM3.31425 19.9333C4.88156 18.2185 7.13655 17.1429 9.64279 17.1429C12.149 17.1429 14.404 18.2185 15.9713 19.9333C16.528 20.5424 16.0351 21.4286 15.2099 21.4286H4.07563C3.25044 21.4286 2.75754 20.5424 3.31425 19.9333ZM19.0178 11.7858C19.0178 11.0462 19.6174 10.4465 20.3571 10.4465H24.6429C25.3824 10.4465 25.9821 11.0462 25.9821 11.7858C25.9821 12.5255 25.3824 13.1251 24.6429 13.1251H20.3571C19.6174 13.1251 19.0178 12.5255 19.0178 11.7858ZM20.3571 16.8751C19.6174 16.8751 19.0178 17.4747 19.0178 18.2144C19.0178 18.9541 19.6174 19.5537 20.3571 19.5537H24.6429C25.3824 19.5537 25.9821 18.9541 25.9821 18.2144C25.9821 17.4747 25.3824 16.8751 24.6429 16.8751H20.3571Z" fill="black"/>
</svg>
