<svg width="12" height="12" viewBox="0 0 12 12" fill="none" xmlns="http://www.w3.org/2000/svg">
<g clip-path="url(#clip0_1_278)">
<path d="M6 4.74123H0.00234375C0.0632812 3.00451 0.967969 1.48108 2.32031 0.571703C2.63203 0.363109 3.04219 0.470921 3.25547 0.777953L6 4.74123ZM9 3.99123C9 3.16389 9.67266 2.49123 10.5 2.49123H11.25C11.6648 2.49123 12 2.82639 12 3.24123C12 3.65608 11.6648 3.99123 11.25 3.99123H10.5V5.49123C10.5 6.08186 10.3641 6.6678 10.1016 7.21389C9.83906 7.75998 9.45 8.25686 8.9625 8.67405C8.475 9.09123 7.89609 9.42405 7.25859 9.64905C6.62109 9.87405 5.93906 9.99123 5.25 9.99123C4.56094 9.99123 3.87891 9.87405 3.24141 9.64905C2.60391 9.42405 2.025 9.09123 1.5375 8.67405C1.05 8.25686 0.663281 7.75998 0.398438 7.21389C0.133594 6.6678 0 6.08186 0 5.49123H5.25H9V3.99123ZM1.875 9.99123C2.17337 9.99123 2.45952 10.1098 2.6705 10.3207C2.88147 10.5317 3 10.8179 3 11.1162C3 11.4146 2.88147 11.7008 2.6705 11.9117C2.45952 12.1227 2.17337 12.2412 1.875 12.2412C1.57663 12.2412 1.29048 12.1227 1.0795 11.9117C0.868526 11.7008 0.75 11.4146 0.75 11.1162C0.75 10.8179 0.868526 10.5317 1.0795 10.3207C1.29048 10.1098 1.57663 9.99123 1.875 9.99123ZM7.5 11.1162C7.5 10.8179 7.61853 10.5317 7.8295 10.3207C8.04048 10.1098 8.32663 9.99123 8.625 9.99123C8.92337 9.99123 9.20952 10.1098 9.4205 10.3207C9.63147 10.5317 9.75 10.8179 9.75 11.1162C9.75 11.4146 9.63147 11.7008 9.4205 11.9117C9.20952 12.1227 8.92337 12.2412 8.625 12.2412C8.32663 12.2412 8.04048 12.1227 7.8295 11.9117C7.61853 11.7008 7.5 11.4146 7.5 11.1162Z" fill="#002E3B"/>
</g>
<defs>
<clipPath id="clip0_1_278">
<rect width="12" height="12" fill="white"/>
</clipPath>
</defs>
</svg>
